<svg xmlns="http://www.w3.org/2000/svg" width="42" height="42" viewBox="0 0 42 42"><path fill="#434440" d="M40.24 10.555l-7.655-8.878L31.07-.08H12.984a4.39 4.39 0 0 0-4.392 4.396v5.586h2.722V5.385a2.468 2.468 0 0 1 2.464-2.472L29.245 2.9v7.328a4.94 4.94 0 0 0 4.942 4.94h5.353l-.263 21.14a2.483 2.483 0 0 1-2.467 2.468l-23.228-.01c-1.244 0-2.244-1.22-2.25-2.723v-1.79H8.605v2.67c0 2.68 1.797 4.86 4.003 4.86l24.996-.007a4.403 4.403 0 0 0 4.397-4.4V12.6l-1.76-2.045"/><path fill="#08743B" d="M28.35 35.614H0V8.54h28.35v27.074M2.723 32.888H25.62V11.264H2.723"/><path fill="#08743B" d="M22.05 29.222H17.28l-3.258-4.604-3.42 4.604H5.803l5.95-7.48-4.805-6.546h4.842l2.25 3.558 2.396-3.558h4.93L16.33 21.74l5.72 7.482"/></svg>