<svg xmlns="http://www.w3.org/2000/svg" width="200.366" height="47.727" viewBox="0 0 200.366 47.727"><path fill="#282C37" d="M28.427 9.413h-5.685V6.57H5.685v17.056H22.74v-2.843h5.686v2.843c0 2.79-1.29 4.58-3.87 5.37-.657.21-1.262.315-1.815.315H5.69c-.553 0-1.158-.1-1.816-.31-2.58-.79-3.87-2.58-3.87-5.37V6.57C0 3.78 1.29 1.99 3.87 1.2 4.526.99 5.132.886 5.684.886H22.74c.554 0 1.16.105 1.817.316 2.58.79 3.87 2.58 3.87 5.37v2.843zM53.34.885c.552 0 1.157.105 1.815.316 2.58.79 3.87 2.58 3.87 5.37v17.06c0 2.79-1.29 4.58-3.87 5.37-.658.21-1.263.32-1.816.32H36.28c-.553 0-1.158-.103-1.816-.314-2.58-.79-3.87-2.58-3.87-5.37V6.57c0-2.79 1.29-4.58 3.87-5.37.658-.21 1.263-.315 1.816-.315h17.06zm0 22.74V6.57H36.282v17.056H53.34zM83.937.885c2.79 0 4.58 1.29 5.37 3.87.21.658.315 1.263.315 1.816v17.06c0 2.79-1.29 4.58-3.87 5.37-.657.21-1.262.32-1.815.32h-22.74V.89h22.74zM66.88 23.625h17.057V6.57H66.882v17.056zm53.34-17.053H97.48v5.686h22.74v5.685H97.48v5.686h22.74v5.68H97.48c-.553 0-1.158-.107-1.816-.318-2.58-.79-3.87-2.58-3.87-5.37V6.57c0-.553.106-1.158.317-1.816.79-2.58 2.58-3.87 5.37-3.87h22.74V6.57z"/><path opacity=".85" fill="#282C37" d="M9.97 41.478c.2 0 .423.04.664.116.945.29 1.418.945 1.418 1.967v2.09c0 .206-.04.427-.116.668-.29.945-.945 1.418-1.968 1.418H1.636V37.31h6.35c.126 0 .305.035.536.102.964.29 1.447.95 1.447 1.982v2.084zm-6.25-2.084v2.083h4.166v-2.083H3.72zm6.25 6.25V43.56H3.72v2.084h6.25zm13.294-6.25H14.93v2.083h8.334v2.083H14.93v2.083h8.334v2.083H14.93c-.2 0-.423-.038-.664-.116-.945-.29-1.418-.945-1.418-1.968v-6.25c0-.202.04-.424.116-.665.29-.945.945-1.418 1.968-1.418h8.333v2.08zm11.212 1.042h-2.083v-1.042h-6.25v6.25h6.25v-1.042h2.083v1.042c0 1.022-.473 1.678-1.418 1.968-.24.077-.463.116-.665.116h-6.25c-.203 0-.424-.038-.665-.116-.945-.29-1.418-.945-1.418-1.968v-6.25c0-1.022.473-1.678 1.418-1.967.24-.077.463-.116.665-.116h6.25c.203 0 .424.04.665.12.945.29 1.418.95 1.418 1.97v1.04zm9.13-3.125c1.02 0 1.677.48 1.966 1.42.077.24.116.47.116.67v8.336h-2.083v-4.17h-6.25v4.168h-2.083V39.4c0-1.022.473-1.678 1.418-1.967.24-.076.463-.115.665-.115h6.25zm0 4.17V39.4h-6.25v2.083h6.25zm11.21-4.16H56.9v8.334c0 1.02-.473 1.678-1.418 1.968a2.17 2.17 0 0 1-.665.117h-6.25c-.203 0-.424-.038-.665-.116-.945-.29-1.418-.945-1.418-1.97v-8.34h2.083v8.336h6.25v-8.34zm13.31 2.084h-8.333v2.083h8.333v4.167c0 .2-.04.422-.116.663-.29.946-.945 1.42-1.968 1.42h-6.25c-1.022 0-1.678-.474-1.968-1.42a2.202 2.202 0 0 1-.116-.665h8.333v-2.09h-8.33v-4.165c0-.646.19-1.155.57-1.526.38-.37.88-.557 1.52-.557h6.25c.2 0 .426.04.667.12.946.29 1.418.945 1.418 1.967zm11.227 0H71.02v2.083h8.333v2.083H71.02v2.082h8.333v2.083H71.02a2.2 2.2 0 0 1-.665-.115c-.945-.29-1.418-.945-1.418-1.968V39.4c0-.203.04-.425.116-.666.29-.946.945-1.42 1.968-1.42h8.34V39.4zm14.192-2.083h2.083v8.334c0 1.02-.473 1.678-1.418 1.968a2.17 2.17 0 0 1-.665.118h-6.25c-.203 0-.424-.037-.665-.115-.945-.29-1.418-.946-1.418-1.97v-8.34h2.083v8.335h2.083V39.4h2.083v6.25h2.09v-8.34zm13.295 2.08h-8.333v2.083h8.333v2.084h-8.333v2.083h8.333v2.08h-8.333a2.18 2.18 0 0 1-.665-.12c-.945-.29-1.418-.945-1.418-1.968v-6.25c0-.202.04-.424.116-.665.29-.945.945-1.418 1.968-1.418h8.333v2.082zm16.275-2.083l-6.626 5.007 6.61 5.41h-3.27l-5.05-4.12v4.122h-2.08V37.31h2.08v3.618l4.87-3.617h3.46zm9.13 0h2.082v8.334a2.2 2.2 0 0 1-.145.738c-.31.897-.955 1.345-1.94 1.345l-6.25-7.29v7.29h-2.082V39.4c0-1.022.473-1.678 1.418-1.967.24-.076.463-.115.665-.115l6.25 7.292v-7.29zm11.21 0c.203 0 .425.04.666.117.95.29 1.42.946 1.42 1.968v6.25c0 1.028-.47 1.68-1.42 1.97a2.19 2.19 0 0 1-.66.12h-6.25c-.2 0-.42-.04-.66-.116-.944-.29-1.417-.945-1.417-1.97V39.4c0-1.022.473-1.678 1.418-1.967.243-.076.465-.115.667-.115h6.25zm0 8.334V39.4h-6.25v6.25h6.25zm11.213-8.333h2.083v8.334c0 1.02-.47 1.678-1.41 1.968a2.19 2.19 0 0 1-.663.116h-6.25c-.203 0-.424-.038-.665-.116-.945-.29-1.42-.945-1.42-1.968v-8.34h2.084v8.33h2.08v-6.25h2.085v6.25h2.083v-8.33zm16.275 0h2.083v10.417h-2.083V43.56h-6.25v4.167h-2.083V37.31h2.083v4.168h6.25V37.31zm11.212 0c.202 0 .424.04.665.117.945.29 1.418.945 1.418 1.967v6.25c0 1.02-.473 1.678-1.418 1.968-.24.077-.463.116-.665.116h-6.25c-.202 0-.424-.038-.665-.116-.945-.29-1.418-.945-1.418-1.968V39.4c0-1.023.473-1.68 1.418-1.968.24-.077.463-.116.665-.116h6.25zm0 8.334V39.4h-6.25v6.25h6.25zm11.212-8.333h2.083v8.334c0 1.023-.472 1.68-1.418 1.97-.24.076-.463.115-.665.115h-6.25c-.202 0-.424-.038-.665-.116-.945-.29-1.418-.946-1.418-1.97v-8.34h2.083v8.335h2.083v-6.25h2.083v6.25h2.083V37.31zm4.51 7.847l-.39-5.49V37.37h1.576v2.297l-.367 5.49h-.82zm-.334 2.57v-1.45h1.464v1.45h-1.464z"/><path fill-rule="evenodd" clip-rule="evenodd" fill="#BF2E2E" d="M134.615 0h59.502c3.437 0 6.25 2.812 6.25 6.25V24.7c0 3.437-2.813 6.25-6.25 6.25h-59.502c-3.437 0-6.25-2.813-6.25-6.25V6.25c0-3.438 2.813-6.25 6.25-6.25zm30.895 10.034V6.19h-19.222v3.844h7.69v11.533h-7.69v3.844h19.222v-3.84h-7.69V10.04h7.69zm1.47-3.844v3.844h7.688V25.41h3.844V10.035h7.69V6.19H166.98z"/></svg>